<?xml version="1.0" encoding="UTF-8"?>
<!DOCTYPE svg PUBLIC "-//W3C//DTD SVG 1.1//EN" "http://www.w3.org/Graphics/SVG/1.1/DTD/svg11.dtd">
<!-- Creator: CorelDRAW 2021 (64-Bit) -->
<svg xmlns="http://www.w3.org/2000/svg" xml:space="preserve" width="24px" height="24px" version="1.1" style="shape-rendering:geometricPrecision; text-rendering:geometricPrecision; image-rendering:optimizeQuality; fill-rule:evenodd; clip-rule:evenodd"
viewBox="0 0 1.16 1.16"
 xmlns:xlink="http://www.w3.org/1999/xlink"
 xmlns:xodm="http://www.corel.com/coreldraw/odm/2003">
 <defs>
  <style type="text/css">
   <![CDATA[
    .fil0 {fill:none}
    .fil1 {fill:#212529;fill-rule:nonzero}
   ]]>
  </style>
 </defs>
 <g id="Ebene_x0020_1">
  <metadata id="CorelCorpID_0Corel-Layer"/>
  <g id="_1615012289872">
   <rect class="fil0" x="0.02" y="0.02" width="1.12" height="1.12"/>
   <path class="fil1" d="M0.64 0c0.01,0 0.03,0.01 0.05,0.01 0.02,0 0.04,0.01 0.06,0.01 0.01,0.01 0.01,0.01 0.02,0.02 0.02,0.04 0.04,0.09 0.05,0.14 0.01,0.05 0.02,0.1 0.02,0.15 0,0.08 -0.02,0.16 -0.05,0.24 -0.03,0.08 -0.08,0.15 -0.14,0.21 -0.12,0.11 -0.27,0.18 -0.45,0.18 -0.01,0 -0.01,0 -0.02,0 -0.01,0 -0.02,0 -0.03,0 0,0 -0.01,-0.01 -0.02,-0.01 -0.03,-0.04 -0.06,-0.09 -0.08,-0.14 -0.02,-0.05 -0.04,-0.1 -0.05,-0.15 0,-0.02 0.01,-0.03 0.03,-0.04 0,0 0.01,0 0.01,0 0.01,0.01 0.02,0.01 0.04,0.01 0.01,0 0.02,0 0.03,0 0.07,0 0.13,-0.01 0.19,-0.04 0.06,-0.02 0.12,-0.06 0.16,-0.11 0.05,-0.04 0.09,-0.1 0.11,-0.16 0.03,-0.06 0.04,-0.12 0.04,-0.19 0,-0.02 0,-0.03 0,-0.05 0,-0.01 -0.01,-0.03 -0.01,-0.04 0,-0.02 0.01,-0.04 0.03,-0.04 0,0 0,0 0.01,0zm0.04 0.07c0,0 -0.01,0 -0.01,0l0 0.01c0,0.02 0,0.03 0,0.05 0,0.08 -0.01,0.15 -0.04,0.22 -0.03,0.06 -0.07,0.13 -0.12,0.18 -0.05,0.05 -0.12,0.09 -0.18,0.12 -0.07,0.03 -0.14,0.04 -0.22,0.04 -0.01,0 -0.02,0 -0.04,0 0.01,0.03 0.02,0.07 0.04,0.1 0.01,0.04 0.04,0.07 0.06,0.11l0.01 0c0,0 0.01,0 0.02,0 0.16,0 0.3,-0.07 0.4,-0.17 0.06,-0.05 0.1,-0.12 0.13,-0.19 0.03,-0.06 0.04,-0.14 0.04,-0.21 0,-0.05 0,-0.09 -0.01,-0.14 -0.01,-0.04 -0.03,-0.07 -0.04,-0.11 -0.02,0 -0.03,-0.01 -0.04,-0.01zm0.24 0.04c0.07,0.06 0.13,0.13 0.17,0.21 0.04,0.07 0.07,0.16 0.07,0.26 0,0.16 -0.07,0.3 -0.17,0.41 -0.11,0.1 -0.25,0.17 -0.41,0.17 -0.06,0 -0.11,-0.01 -0.16,-0.02 -0.05,-0.02 -0.1,-0.04 -0.14,-0.07 -0.01,-0.01 -0.02,-0.02 -0.01,-0.04 0,-0.01 0.01,-0.01 0.02,-0.01 0.08,-0.01 0.15,-0.04 0.22,-0.07 0.07,-0.03 0.13,-0.08 0.18,-0.13 0.07,-0.07 0.12,-0.14 0.15,-0.23 0.04,-0.08 0.06,-0.17 0.06,-0.26 0,-0.04 -0.01,-0.07 -0.01,-0.1 0,-0.03 -0.01,-0.06 -0.02,-0.09 0,-0.01 0.01,-0.03 0.02,-0.03 0.01,-0.01 0.03,0 0.03,0zm0.12 0.23c-0.02,-0.04 -0.05,-0.08 -0.09,-0.12l0 0.01c0.01,0.03 0.01,0.06 0.01,0.1 0,0.1 -0.02,0.2 -0.06,0.29 -0.04,0.09 -0.09,0.17 -0.16,0.24 -0.06,0.06 -0.13,0.11 -0.2,0.15 -0.05,0.02 -0.1,0.04 -0.15,0.05 0.02,0.01 0.03,0.01 0.05,0.01 0.04,0.02 0.09,0.02 0.14,0.02 0.14,0 0.27,-0.05 0.36,-0.15 0.1,-0.09 0.15,-0.22 0.15,-0.36 0,-0.09 -0.02,-0.17 -0.05,-0.24zm-1.04 0.19c0.01,-0.14 0.07,-0.26 0.16,-0.35 0.09,-0.1 0.21,-0.16 0.34,-0.18 0.02,0 0.03,0.01 0.04,0.03l0 0c0,0.01 0,0.03 0.01,0.05 0,0.02 0,0.03 0,0.05 0,0.06 -0.01,0.12 -0.03,0.17 -0.03,0.05 -0.06,0.1 -0.1,0.14 -0.04,0.04 -0.09,0.07 -0.14,0.1 -0.05,0.02 -0.11,0.03 -0.17,0.03 -0.01,0 -0.03,0 -0.04,0 -0.02,-0.01 -0.03,-0.01 -0.04,-0.01 -0.02,0 -0.03,-0.02 -0.03,-0.03zm0.2 -0.31c-0.07,0.08 -0.12,0.17 -0.13,0.28 0,0 0,0 0,0 0.02,0 0.03,0.01 0.04,0.01 0.05,0 0.1,-0.01 0.14,-0.03 0.05,-0.02 0.09,-0.05 0.13,-0.08 0.03,-0.04 0.06,-0.08 0.08,-0.13 0.02,-0.04 0.03,-0.09 0.03,-0.14 0,-0.01 -0.01,-0.03 -0.01,-0.04 0,-0.01 0,-0.02 0,-0.02 -0.11,0.02 -0.2,0.07 -0.28,0.15z"/>
  </g>
 </g>
</svg>
